<svg width="95" height="90" viewBox="0 0 45 40" fill="none" xmlns="http://www.w3.org/2000/svg">
<ellipse cx="22.5" cy="20" rx="22.5" ry="20" fill="white"/>
<g clip-path="url(#clip0_421_2314)">
<path d="M22.5 10C17.8333 10 14.9167 12.2165 13.75 16.6494C15.5 14.4329 17.5417 13.6017 19.875 14.1558C21.2063 14.472 22.1578 15.3894 23.2111 16.405C24.9269 18.0593 26.9127 19.974 31.25 19.974C35.9167 19.974 38.8333 17.7576 40 13.3247C38.25 15.5411 36.2083 16.3723 33.875 15.8182C32.5437 15.502 31.5922 14.5846 30.5389 13.569C28.8231 11.9147 26.8373 10 22.5 10ZM13.75 19.974C9.08333 19.974 6.16667 22.1905 5 26.6234C6.75 24.4069 8.79167 23.5758 11.125 24.1299C12.4563 24.446 13.4078 25.3635 14.4611 26.379C16.1769 28.0333 18.1627 29.9481 22.5 29.9481C27.1667 29.9481 30.0833 27.7316 31.25 23.2987C29.5 25.5152 27.4583 26.3463 25.125 25.7922C23.7937 25.4761 22.8422 24.5586 21.7889 23.5431C20.0731 21.8887 18.0873 19.974 13.75 19.974Z" fill="url(#paint0_linear_421_2314)"/>
</g>
<defs>
<linearGradient id="paint0_linear_421_2314" x1="-243.889" y1="993.04" x2="8233.57" y2="4088.48" gradientUnits="userSpaceOnUse">
<stop stop-color="#2298BD"/>
<stop offset="1" stop-color="#0ED7B5"/>
</linearGradient>
<clipPath id="clip0_421_2314">
<rect width="35" height="20" fill="white" transform="translate(5 10)"/>
</clipPath>
</defs>
</svg>
